<?xml version="1.0" standalone="no"?>
<!DOCTYPE svg PUBLIC "-//W3C//DTD SVG 20010904//EN"
 "http://www.w3.org/TR/2001/REC-SVG-20010904/DTD/svg10.dtd">
<svg version="1.0" xmlns="http://www.w3.org/2000/svg"
 width="90.000000pt" height="90.000000pt" viewBox="0 0 90.000000 90.000000"
 preserveAspectRatio="xMidYMid meet">

<g transform="translate(0.000000,90.000000) scale(0.100000,-0.100000)"
fill="#223955" stroke="none">
<path d="M372 789 c-125 -63 -137 -259 -21 -336 120 -79 266 -1 277 147 11
150 -129 254 -256 189z"/>
<path d="M259 286 c-88 -36 -139 -78 -139 -115 0 -6 9 -20 20 -31 19 -19 33
-20 310 -20 277 0 291 1 310 20 11 11 20 26 20 33 0 37 -70 90 -160 122 -42
15 -47 14 -91 -5 -60 -25 -102 -25 -158 0 -52 24 -44 24 -112 -4z"/>
</g>
</svg>
